<svg xmlns="http://www.w3.org/2000/svg" xmlns:xlink="http://www.w3.org/1999/xlink" width="500" zoomAndPan="magnify" viewBox="0 0 375 374.999991" height="500" preserveAspectRatio="xMidYMid meet" version="1.0"><defs><clipPath id="bfb079877f"><path d="M 44 241 L 126 241 L 126 322.675781 L 44 322.675781 Z M 44 241 " clip-rule="nonzero"/></clipPath><clipPath id="19db878881"><path d="M 12.507812 93 L 219 93 L 219 294 L 12.507812 294 Z M 12.507812 93 " clip-rule="nonzero"/></clipPath><clipPath id="0c42d316b4"><path d="M 249 52.675781 L 331 52.675781 L 331 134 L 249 134 Z M 249 52.675781 " clip-rule="nonzero"/></clipPath><clipPath id="6dc7f18ccc"><path d="M 156 81 L 362.757812 81 L 362.757812 283 L 156 283 Z M 156 81 " clip-rule="nonzero"/></clipPath></defs><g clip-path="url(#bfb079877f)"><path fill="#0a58b8" d="M 84.96875 241.660156 C 107.375 241.660156 125.546875 259.789062 125.546875 282.152344 C 125.546875 304.511719 107.375 322.640625 84.96875 322.640625 C 62.5625 322.640625 44.394531 304.511719 44.394531 282.152344 C 44.394531 259.789062 62.5625 241.660156 84.96875 241.660156 " fill-opacity="1" fill-rule="nonzero"/></g><g clip-path="url(#19db878881)"><path fill="#0a58b8" d="M 192.128906 162.429688 L 192.128906 257.773438 L 51.890625 176.976562 L 147.007812 122.179688 C 147.980469 121.621094 148.574219 120.585938 148.574219 119.464844 L 148.574219 96.4375 C 148.574219 94.027344 145.960938 92.523438 143.871094 93.726562 L 19.0625 165.632812 C 15 167.972656 12.496094 172.300781 12.496094 176.976562 C 12.496094 181.660156 15 185.988281 19.0625 188.324219 L 198.695312 291.816406 C 200.722656 292.988281 202.992188 293.574219 205.257812 293.574219 C 207.527344 293.574219 209.792969 292.988281 211.824219 291.816406 C 215.886719 289.476562 218.390625 285.152344 218.390625 280.46875 L 218.390625 174 C 218.390625 172.886719 217.792969 171.855469 216.828125 171.296875 L 196.839844 159.722656 C 194.746094 158.511719 192.128906 160.019531 192.128906 162.429688 " fill-opacity="1" fill-rule="nonzero"/></g><g clip-path="url(#0c42d316b4)"><path fill="#0ea2d9" d="M 290.257812 133.695312 C 267.851562 133.695312 249.683594 115.566406 249.683594 93.207031 C 249.683594 70.84375 267.851562 52.714844 290.257812 52.714844 C 312.667969 52.714844 330.832031 70.84375 330.832031 93.207031 C 330.832031 115.566406 312.667969 133.695312 290.257812 133.695312 " fill-opacity="1" fill-rule="nonzero"/></g><g clip-path="url(#6dc7f18ccc)"><path fill="#0ea2d9" d="M 183.097656 212.925781 L 183.097656 117.578125 L 323.335938 198.375 L 228.21875 253.175781 C 227.246094 253.738281 226.652344 254.769531 226.652344 255.886719 L 226.652344 278.917969 C 226.652344 281.328125 229.265625 282.832031 231.355469 281.628906 L 356.164062 209.722656 C 360.226562 207.382812 362.730469 203.058594 362.730469 198.375 C 362.730469 193.695312 360.226562 189.371094 356.164062 187.03125 L 176.53125 83.535156 C 174.503906 82.367188 172.234375 81.785156 169.96875 81.785156 C 167.699219 81.785156 165.433594 82.367188 163.402344 83.535156 C 159.339844 85.878906 156.835938 90.203125 156.835938 94.886719 L 156.835938 201.351562 C 156.835938 202.46875 157.429688 203.5 158.398438 204.058594 L 178.386719 215.632812 C 180.480469 216.84375 183.097656 215.339844 183.097656 212.925781 " fill-opacity="1" fill-rule="nonzero"/></g></svg>